<svg width="227" height="56" viewBox="0 0 227 56" fill="none" xmlns="http://www.w3.org/2000/svg">
<path fill-rule="evenodd" clip-rule="evenodd" d="M0.384766 2.40302V4.76649H2.8234H5.26202V11.6081V18.4497H7.9329H10.6038V11.6081V4.76649H13.0424H15.481V2.40302V0.0395571H7.9329H0.384766V2.40302ZM16.1778 9.24464V18.4497H23.4936H30.8095V16.0863V13.7228H26.1645H21.5195V12.6033V11.4837H26.1645H30.8095V9.24464V7.00557H26.1645H21.5195V5.88603V4.76649H26.1645H30.8095V2.40302V0.0395571H23.4936H16.1778V9.24464ZM31.7385 9.24141V18.4828L37.1383 18.4039C42.4211 18.3271 42.5667 18.3111 43.8515 17.6658C45.5453 16.8152 46.9109 15.2931 47.5736 13.5173C48.3328 11.4825 48.3372 7.01776 47.5819 4.99562C46.8768 3.10808 45.6902 1.69971 44.0998 0.863288C42.7727 0.165194 42.7604 0.163701 37.2545 0.0820994L31.7385 0V9.24141ZM50.4449 2.34083C52.7492 5.85095 52.7265 5.29118 50.6922 8.44305C49.7202 9.94895 48.925 11.2536 48.925 11.3424C48.925 11.4312 49.7832 11.4713 50.8318 11.4315L52.7386 11.3593L53.4446 10.0577C53.8329 9.34167 54.2068 8.75379 54.2758 8.75155C54.3446 8.74906 54.7491 9.36281 55.1751 10.1154L55.9492 11.4837H57.9001H59.8512L58.162 8.81598C57.2333 7.34889 56.3969 6.01963 56.304 5.86239C56.2074 5.69894 56.7126 4.6824 57.4818 3.49221C58.2224 2.3458 59.016 1.10013 59.2453 0.723719L59.6619 0.0395571H57.698H55.7341L55.1022 1.28349C54.7545 1.96765 54.3887 2.52742 54.2893 2.52742C54.1896 2.52742 53.8239 1.96765 53.4764 1.28349L52.8442 0.0395571H50.8892H48.9338L50.4449 2.34083ZM40.7916 5.32626C42.3208 6.16318 42.7488 6.9471 42.8366 9.07074C42.9708 12.3196 41.7496 13.7228 38.7878 13.7228H37.0803V9.24464V4.76649H38.4245C39.3607 4.76649 40.0793 4.93641 40.7916 5.32626Z" fill="#FF2B06"/>
<path fill-rule="evenodd" clip-rule="evenodd" d="M1.76565 33.5703C1.83551 39.7898 1.86236 40.1226 2.38493 41.2208C3.05245 42.6237 3.68552 43.3029 4.92789 43.9502C5.73585 44.3709 6.27054 44.4453 8.49245 44.4457C10.7666 44.446 11.2559 44.3746 12.2566 43.8975C12.9244 43.5791 13.6979 42.96 14.1007 42.4214C15.3606 40.7365 15.5028 39.7944 15.5028 33.1256V27.0679H14.3283H13.1539L13.0807 33.4552C12.9997 40.5303 12.9515 40.7715 11.4071 41.8383C10.7833 42.2694 10.2588 42.3894 8.73009 42.451C7.05474 42.5185 6.73179 42.4637 6.01009 41.9898C5.55976 41.694 4.97161 41.09 4.70308 40.6474C4.24777 39.8966 4.20998 39.4125 4.14178 33.4552L4.06859 27.0679H2.88064H1.69269L1.76565 33.5703ZM32.6126 28.3338V29.5998H33.682H34.7514V28.3338V27.0679H33.682H32.6126V28.3338ZM84.4176 28.3338V29.5998H85.487H86.5563V28.3338V27.0679H85.487H84.4176V28.3338ZM122.915 35.5604V44.1007L127.727 44.0956C131.908 44.0913 132.664 44.0346 133.49 43.6634C137.291 41.955 137.633 36.778 134.039 35.3362L133.336 35.054L134.077 34.5996C136.153 33.3263 136.261 30.0714 134.285 28.2917C133.248 27.3572 132.478 27.2221 127.608 27.119L122.915 27.0198V35.5604ZM178.76 28.3338V29.5998H179.829H180.898V28.3338V27.0679H179.829H178.76V28.3338ZM183.988 28.3338V29.5998H185.176H186.364V28.3338V27.0679H185.176H183.988V28.3338ZM90.3585 29.945V31.6713H89.5268C88.7148 31.6713 88.6951 31.6932 88.6951 32.592C88.6951 33.4879 88.7172 33.5127 89.5135 33.5127H90.3319L90.4046 38.3284C90.4762 43.0626 90.4871 43.154 91.0534 43.7375C91.5548 44.254 91.8245 44.3309 93.1327 44.3309H94.636V43.4102C94.636 42.5219 94.6082 42.4895 93.8518 42.4895C93.4205 42.4895 92.9393 42.3652 92.7824 42.2133C92.5814 42.0185 92.4973 40.6941 92.4973 37.7249V33.5127H93.5666H94.636V32.592V31.6713H93.5666H92.4973V29.945V28.2187H91.4279H90.3585V29.945ZM132.342 29.7384C133.226 30.3782 133.524 31.4195 133.16 32.596C132.73 33.9878 131.964 34.2716 128.321 34.3897L125.291 34.4877V31.7959V29.1038L128.483 29.1793C131.283 29.2453 131.756 29.3137 132.342 29.7384ZM23.5225 31.7558C23.0321 31.9328 22.2569 32.354 21.7997 32.6919L20.9684 33.306V32.4887C20.9684 31.6734 20.9656 31.6713 19.899 31.6713H18.8297V37.886V44.1007H19.8724H20.9154L21.0036 40.0151C21.081 36.4221 21.1497 35.8333 21.5732 35.132C22.2079 34.0808 23.3258 33.475 24.6672 33.4552C25.541 33.4425 25.878 33.5599 26.3908 34.0562L27.0282 34.673L27.1011 39.3868L27.1741 44.1007H28.2425H29.3109L29.2389 38.9379C29.1602 33.3019 29.1334 33.1898 27.5935 32.0762C26.8062 31.507 24.6763 31.3392 23.5225 31.7558ZM54.0851 31.6476C51.3853 32.3188 49.7104 34.7131 49.6398 38.0011C49.5952 40.0846 50.046 41.5444 51.1037 42.7413C52.2393 44.0263 53.4924 44.5509 55.4258 44.5509C58.2252 44.5509 60.2073 43.1825 60.9963 40.7056C61.1503 40.222 61.0909 40.1878 60.099 40.1878C59.1123 40.1878 59.0042 40.249 58.5748 41.0509C57.9543 42.2089 56.8414 42.8108 55.3607 42.7892C53.505 42.7622 52.3831 41.654 51.9696 39.4397L51.8083 38.5765H56.5957H61.3832L61.2432 37.3681C60.9091 34.4808 60.0693 33.0172 58.2243 32.1055C57.157 31.5781 55.2243 31.3643 54.0851 31.6476ZM68.4959 31.6983C68.1691 31.8235 67.5009 32.3041 67.0107 32.766L66.1195 33.6062V32.6388V31.6713H65.0501H63.9808V37.886V44.1007H65.0501H66.1195V40.5022C66.1195 38.4679 66.2376 36.5218 66.3911 36.0253C66.8032 34.6933 67.7649 33.9293 69.1976 33.7958L70.397 33.6844V32.5628C70.397 31.489 70.3689 31.4419 69.7435 31.4557C69.3842 31.4637 68.8226 31.5728 68.4959 31.6983ZM74.5471 31.7464C72.7662 32.4134 71.8228 33.6161 71.8228 35.2188C71.8228 37.2461 72.6341 37.8609 76.6837 38.9027C77.985 39.2376 79.2414 39.6798 79.4759 39.8853C79.9443 40.2959 80.031 41.1363 79.6717 41.7863C79.3918 42.2931 77.7785 42.9498 76.8132 42.9498C75.1229 42.9498 73.4863 41.7665 73.4863 40.5445C73.4863 40.2752 73.2242 40.1878 72.4169 40.1878C71.5529 40.1878 71.3494 40.2651 71.358 40.5906C71.3751 41.2505 71.9837 42.7155 72.4537 43.2286C73.9948 44.9107 78.7057 45.119 80.6446 43.5909C81.8875 42.6117 82.4257 40.362 81.7342 39.0378C81.3126 38.2306 79.9056 37.567 77.3453 36.9674C74.8304 36.3786 73.9615 35.8511 73.9615 34.9126C73.9615 34.0191 74.7039 33.4646 76.0701 33.3373C77.7435 33.1817 78.8956 33.6126 79.3673 34.5711C79.7183 35.2837 79.8455 35.3541 80.7827 35.3541C81.7846 35.3541 81.8086 35.3369 81.661 34.7211C81.3183 33.2908 80.0558 32.0516 78.5727 31.6898C77.2754 31.3735 75.4753 31.3988 74.5471 31.7464ZM99.864 31.6969C98.9208 31.9731 97.6022 32.8756 97.2742 33.4688C97.1535 33.6874 96.9796 34.253 96.8881 34.7253L96.7217 35.5843H97.8177C98.7445 35.5843 98.9135 35.5152 98.9135 35.1368C98.9135 34.8905 99.1663 34.4044 99.4755 34.0564C99.9588 33.512 100.25 33.4119 101.555 33.3406C102.772 33.274 103.225 33.3505 103.844 33.727C104.531 34.1443 104.617 34.3124 104.617 35.2406C104.617 36.511 104.441 36.606 101.409 36.9699C100.232 37.111 98.8184 37.4197 98.2664 37.6556C96.0126 38.6193 95.414 41.5587 97.1003 43.3823C98.5996 45.0039 101.786 44.9634 104.045 43.2942L104.806 42.7319L104.958 43.3165C105.147 44.0466 106.508 44.6504 107.493 44.4407C108.089 44.3141 108.181 44.1884 108.181 43.5071C108.181 42.8299 108.102 42.7197 107.613 42.7197C107.3 42.7197 106.979 42.5558 106.9 42.3555C106.82 42.1553 106.756 40.1822 106.756 37.971C106.756 33.361 106.617 32.8855 105.056 32.114C103.912 31.5484 101.132 31.3252 99.864 31.6969ZM112.815 31.7224C111.026 32.3368 110.073 33.5222 110.006 35.2185C109.93 37.1064 110.966 37.8796 114.943 38.9027C117.57 39.5785 118.162 39.9486 118.162 40.9139C118.162 42.2163 116.301 43.1459 114.281 42.8527C112.901 42.6522 112.043 41.993 111.847 40.9835C111.699 40.2195 111.651 40.1878 110.65 40.1878C109.726 40.1878 109.608 40.2464 109.612 40.7056C109.619 41.4008 110.382 42.9712 110.949 43.459C112.174 44.5132 115.155 44.9339 117.339 44.3613C119.625 43.7612 120.982 40.9795 119.939 39.0277C119.474 38.1565 118.337 37.6172 115.605 36.972C113.07 36.3733 112.221 35.852 112.221 34.8938C112.221 33.9063 113.18 33.2816 114.689 33.286C116.174 33.2902 116.943 33.6426 117.568 34.6038C117.962 35.211 118.196 35.338 118.934 35.3451C119.677 35.3527 119.826 35.2756 119.826 34.8823C119.826 33.6766 118.344 32.0861 116.855 31.6941C115.677 31.3839 113.762 31.3972 112.815 31.7224ZM143.589 31.6983C143.263 31.8235 142.594 32.3041 142.104 32.766L141.213 33.6062V32.6388V31.6713H140.144H139.074V37.886V44.1007H140.144H141.213V40.3309C141.213 36.2525 141.385 35.4621 142.491 34.4578C142.909 34.0787 143.472 33.8723 144.294 33.7956L145.49 33.6844V32.5628C145.49 31.489 145.462 31.4419 144.837 31.4557C144.477 31.4637 143.916 31.5728 143.589 31.6983ZM150.425 31.6704C148.645 32.1892 147.391 33.5599 147.391 34.9861C147.391 35.5286 147.478 35.5843 148.324 35.5843C149.179 35.5843 149.278 35.5178 149.532 34.7748C149.868 33.7885 150.778 33.2826 152.216 33.2826C154.285 33.2826 155.238 33.9146 155.23 35.2814C155.224 36.409 154.949 36.5618 152.352 36.8864C149.233 37.2763 148.606 37.4851 147.632 38.4585C146.979 39.1115 146.819 39.4726 146.732 40.4939C146.59 42.1445 147.13 43.2426 148.453 43.9934C150.164 44.9643 152.563 44.7141 154.329 43.3812L155.207 42.7185L155.519 43.3501C155.936 44.1912 156.911 44.6225 157.963 44.4315C158.719 44.294 158.798 44.2073 158.798 43.5149C158.798 42.8518 158.711 42.7406 158.145 42.6773L157.491 42.6046L157.372 38.0317L157.253 33.4591L156.353 32.7053C155.01 31.5816 152.332 31.1141 150.425 31.6704ZM192.883 31.6573C191.094 32.0718 189.691 33.5413 189.691 34.9997C189.691 35.5233 189.785 35.5843 190.596 35.5843C191.417 35.5843 191.538 35.5024 191.903 34.7004C192.37 33.6766 193.102 33.2826 194.538 33.2826C196.604 33.2826 197.533 33.9153 197.533 35.3226C197.533 36.3885 197.088 36.6201 194.468 36.9179C191.905 37.2091 190.678 37.6637 189.691 38.6877C189.18 39.2176 189.097 39.5196 189.097 40.8394C189.097 42.5984 189.491 43.3025 190.911 44.085C192.487 44.953 195.624 44.5281 196.831 43.2834C197.484 42.6106 197.771 42.5682 197.771 43.1443C197.771 44.0066 199.045 44.6526 200.298 44.425C201.015 44.2945 201.098 44.2008 201.098 43.5149C201.098 42.8518 201.011 42.7406 200.444 42.6773L199.791 42.6046L199.672 38.0732L199.553 33.5417L198.85 32.8312C197.705 31.675 195.055 31.1537 192.883 31.6573ZM218.479 31.771C216.831 32.2912 215.593 33.7254 215.593 35.1166C215.593 35.5175 215.746 35.5843 216.663 35.5843C217.563 35.5843 217.732 35.5136 217.732 35.1368C217.732 34.8905 217.99 34.3987 218.306 34.0435C218.831 33.4522 219.017 33.3976 220.514 33.3976C222.757 33.3976 223.435 33.8281 223.435 35.2492C223.435 36.511 223.252 36.609 220.227 36.9646C216.44 37.4103 214.999 38.4886 214.999 40.8783C214.999 43.122 216.298 44.3649 218.804 44.5196C220.121 44.6009 220.54 44.5231 221.666 43.9895C222.392 43.6456 223.11 43.1719 223.261 42.9367C223.513 42.5459 223.558 42.5721 223.783 43.2449C224.091 44.1647 225.074 44.66 226.188 44.4575C226.926 44.3235 227 44.2376 227 43.5149C227 42.8297 226.921 42.7197 226.431 42.7197C226.119 42.7197 225.798 42.5558 225.718 42.3555C225.639 42.1553 225.574 40.1774 225.574 37.9604C225.574 33.3194 225.443 32.9058 223.712 32.0944C222.395 31.4768 219.9 31.3226 218.479 31.771ZM36.6525 31.8046C36.6525 31.8912 37.6945 34.6931 38.9683 38.0313L41.2843 44.1007L42.4734 44.1002L43.6628 44.0995L45.6573 38.9789C46.7542 36.1623 47.8509 33.3606 48.0945 32.7527L48.5372 31.6472L47.3179 31.7169L46.0983 31.7864L44.4044 36.5443C43.4727 39.1612 42.6424 41.3679 42.5594 41.4482C42.4765 41.5287 41.6723 39.3877 40.7722 36.6905L39.136 31.7864L37.8941 31.7169C37.2112 31.6785 36.6525 31.7181 36.6525 31.8046ZM159.639 32.1589C160.009 33.2899 162.669 42.2255 162.902 43.1225L163.156 44.1007H164.369H165.582L166.787 39.4397L167.993 34.7787L168.309 35.8145C168.483 36.3841 169.061 38.4557 169.593 40.4179L170.561 43.9856L171.75 44.0533L172.938 44.1207L173.594 41.8666C173.955 40.6267 174.784 37.8529 175.436 35.7026C176.087 33.5521 176.621 31.7597 176.621 31.7195C176.621 31.6792 176.123 31.6778 175.514 31.7162L174.407 31.7864L173.197 36.3181C172.531 38.8106 171.917 40.9153 171.832 40.9954C171.746 41.0753 171.153 39.036 170.514 36.4636L169.352 31.7864L168.155 31.7183L166.958 31.6499L165.968 35.4011C165.424 37.4641 164.849 39.7122 164.69 40.397L164.402 41.6418L163.306 37.2896C162.702 34.8958 162.134 32.6523 162.044 32.3043C161.891 31.7185 161.789 31.6713 160.679 31.6713C159.565 31.6713 159.49 31.7061 159.639 32.1589ZM202.161 32.5345C202.993 34.6067 206.563 44.3578 206.563 44.5576C206.563 44.6789 206.302 45.3508 205.982 46.0505L205.401 47.3231H204.2H202.999V48.2438C202.999 49.0888 203.052 49.1666 203.652 49.1889C205.454 49.2561 206.393 48.9944 206.971 48.2638C207.726 47.3086 209.733 42.4375 212.603 34.5943L213.681 31.6476L212.458 31.7172L211.235 31.7864L209.524 36.7352C208.001 41.1411 207.786 41.6208 207.559 41.1084C207.419 40.792 206.632 38.5393 205.81 36.1022L204.315 31.6713H203.065H201.814L202.161 32.5345ZM32.6126 38.0011V44.1007H33.682H34.7514V38.0011V31.9015H33.682H32.6126V38.0011ZM84.4176 38.0011V44.1007H85.487H86.5563V38.0011V31.9015H85.487H84.4176V38.0011ZM178.76 38.0011V44.1007H179.829H180.898V38.0011V31.9015H179.829H178.76V38.0011ZM183.988 39.4726C183.988 47.7126 184.053 47.3231 182.661 47.3231C182.149 47.3231 182.087 47.4235 182.087 48.2438C182.087 49.1585 182.093 49.1645 183.002 49.1645C184.306 49.1645 185.315 48.7661 185.814 48.0539C186.206 47.4948 186.252 46.7228 186.321 39.6699L186.398 31.9015H185.193H183.988V39.4726ZM57.4621 33.8472C58.0886 34.2447 58.9757 35.8264 58.9852 36.5625C58.9899 36.9283 58.6653 36.9653 55.4508 36.9653H51.9114L52.1082 36.1199C52.6657 33.7261 55.4254 32.5545 57.4621 33.8472ZM132.579 36.7207C133.789 37.2526 134.084 37.7454 134.084 39.2344C134.084 41.5718 132.71 42.2593 128.038 42.2593H125.291V39.2671V36.2748L128.44 36.2799C131.014 36.284 131.769 36.3643 132.579 36.7207ZM104.255 41.1183C104.004 41.5881 103.487 42.0034 102.771 42.3102C100.457 43.3015 98.6226 42.7162 98.4855 40.9432C98.3862 39.6595 99.3127 38.8992 101.228 38.6928C101.981 38.6115 103.025 38.4228 103.547 38.2732L104.498 38.0011L104.569 39.1994C104.615 39.9732 104.504 40.6529 104.255 41.1183ZM155.191 39.3782C155.108 40.6426 154.987 40.977 154.4 41.5702C153.609 42.3703 151.735 42.997 150.721 42.8007C149.237 42.5134 148.513 41.1955 149.166 39.9725C149.627 39.1085 150.036 38.9379 152.515 38.5761C153.553 38.4246 154.562 38.2106 154.758 38.1003C154.954 37.9901 155.154 37.8968 155.202 37.8929C155.25 37.8892 155.245 38.5574 155.191 39.3782ZM197.49 39.3782C197.407 40.6426 197.287 40.977 196.7 41.5702C195.913 42.3654 193.983 43.0154 193.046 42.8004C191.696 42.4909 190.972 41.3492 191.389 40.1894C191.719 39.273 192.472 38.9174 194.8 38.5779C195.846 38.4253 196.862 38.2106 197.058 38.1003C197.254 37.9901 197.453 37.8968 197.501 37.8929C197.549 37.8892 197.544 38.5574 197.49 39.3782ZM223.097 41.0746C222.883 41.4758 222.289 41.9615 221.639 42.2658C219.374 43.3282 217.443 42.7392 217.304 40.9432C217.197 39.5532 218.067 38.9391 220.646 38.5844C221.74 38.4338 222.788 38.2184 222.976 38.1056C223.483 37.7999 223.58 40.1705 223.097 41.0746ZM10.75 49.3947C10.75 49.7323 10.9085 49.855 11.3441 49.855C11.7797 49.855 11.9382 49.7323 11.9382 49.3947C11.9382 49.057 11.7797 48.9343 11.3441 48.9343C10.9085 48.9343 10.75 49.057 10.75 49.3947ZM19.5426 49.9011C19.5426 50.653 19.4791 50.8063 19.2574 50.5916C18.8176 50.1655 17.6942 50.2643 17.1662 50.7757C16.4657 51.4543 16.521 52.9338 17.2743 53.6632C17.8459 54.217 18.9147 54.4235 19.1664 54.029C19.2363 53.9194 19.5635 53.8796 19.8933 53.9408L20.4931 54.0518V51.4932C20.4931 49.0879 20.4646 48.9343 20.0179 48.9343C19.6179 48.9343 19.5426 49.0879 19.5426 49.9011ZM40.9299 49.8831C40.9299 50.6813 40.8758 50.7886 40.5889 50.558C40.4014 50.4072 39.8936 50.317 39.4602 50.3573C38.8283 50.416 38.5911 50.5913 38.2615 51.2439C37.4405 52.8689 38.535 54.537 40.14 54.107C40.5091 54.008 41.0516 53.9505 41.3458 53.979C41.8712 54.0301 41.8805 53.9873 41.8805 51.4828C41.8805 49.0879 41.852 48.9343 41.4052 48.9343C41.0067 48.9343 40.9299 49.0879 40.9299 49.8831ZM53.2871 51.4662V53.9981H53.8812H54.4753V51.4662V48.9343H53.8812H53.2871V51.4662ZM80.3778 49.3947C80.3778 49.7015 80.5363 49.855 80.853 49.855C81.1698 49.855 81.3283 49.7015 81.3283 49.3947C81.3283 49.0879 81.1698 48.9343 80.853 48.9343C80.5363 48.9343 80.3778 49.0879 80.3778 49.3947ZM92.4973 49.7254C92.4973 50.502 92.4818 50.5142 91.6601 50.3851C90.1406 50.1462 89.1827 51.7728 89.9724 53.2517C90.4431 54.1339 90.816 54.2615 92.3974 54.0815L93.6855 53.9348V51.4345V48.9343H93.0914C92.5728 48.9343 92.4973 49.0351 92.4973 49.7254ZM95.8242 49.3947C95.8242 49.7673 95.9827 49.855 96.6559 49.855H97.4876V51.9266C97.4876 53.9827 97.4922 53.9981 98.0817 53.9981C98.6713 53.9981 98.6758 53.9827 98.6758 51.9266V49.855H99.5076C100.181 49.855 100.339 49.7673 100.339 49.3947C100.339 48.9666 100.181 48.9343 98.0817 48.9343C95.9827 48.9343 95.8242 48.9666 95.8242 49.3947ZM100.815 51.4662V53.9981H102.834C104.696 53.9981 104.854 53.962 104.854 53.5378C104.854 53.1246 104.696 53.0775 103.31 53.0775C101.82 53.0775 101.765 53.0567 101.765 52.502C101.765 51.9579 101.836 51.9266 103.072 51.9266C104.221 51.9266 104.379 51.8709 104.379 51.4662C104.379 51.0616 104.221 51.0059 103.072 51.0059C101.836 51.0059 101.765 50.9746 101.765 50.4305C101.765 49.8806 101.829 49.855 103.191 49.855C104.458 49.855 104.617 49.8039 104.617 49.3947C104.617 48.9728 104.458 48.9343 102.716 48.9343H100.815V51.4662ZM105.33 51.4662V53.9981H106.855C107.694 53.9981 108.553 53.9337 108.765 53.8552C109.364 53.6324 109.845 52.5147 109.845 51.3449C109.845 50.4747 109.718 50.1568 109.15 49.6071C108.523 48.9999 108.303 48.9343 106.893 48.9343H105.33V51.4662ZM51.1484 49.7399C51.1484 50.0981 51.0136 50.3154 50.7919 50.3154C50.5958 50.3154 50.4354 50.4707 50.4354 50.6606C50.4354 50.8505 50.5958 51.0059 50.7919 51.0059C51.069 51.0059 51.1484 51.3118 51.1484 52.3789C51.1484 53.5007 51.2325 53.7954 51.6079 53.9901C52.3753 54.3878 53.0495 54.284 53.0495 53.768C53.0495 53.5122 52.8909 53.3076 52.693 53.3076C52.4238 53.3076 52.3365 53.0264 52.3365 52.1568C52.3365 51.2872 52.4238 51.0059 52.693 51.0059C52.889 51.0059 53.0495 50.8505 53.0495 50.6606C53.0495 50.4707 52.889 50.3154 52.693 50.3154C52.4713 50.3154 52.3365 50.0981 52.3365 49.7399C52.3365 49.2796 52.2177 49.1645 51.7425 49.1645C51.2672 49.1645 51.1484 49.2796 51.1484 49.7399ZM128.618 49.7399C128.618 50.0981 128.483 50.3154 128.262 50.3154C128.066 50.3154 127.905 50.4707 127.905 50.6606C127.905 50.8505 128.066 51.0059 128.262 51.0059C128.539 51.0059 128.618 51.3118 128.618 52.3789C128.618 53.5007 128.702 53.7954 129.078 53.9901C129.845 54.3878 130.519 54.284 130.519 53.768C130.519 53.5122 130.361 53.3076 130.163 53.3076C129.894 53.3076 129.806 53.0264 129.806 52.1568C129.806 51.2872 129.894 51.0059 130.163 51.0059C130.359 51.0059 130.519 50.8505 130.519 50.6606C130.519 50.4707 130.359 50.3154 130.163 50.3154C129.941 50.3154 129.806 50.0981 129.806 49.7399C129.806 49.2796 129.688 49.1645 129.212 49.1645C128.737 49.1645 128.618 49.2796 128.618 49.7399ZM108.287 50.3013C108.769 50.8169 108.842 52.2378 108.414 52.7384C108.254 52.9248 107.762 53.0775 107.321 53.0775H106.518V51.4662V49.855H107.194C107.566 49.855 108.058 50.056 108.287 50.3013ZM0.622135 51.1056C0.96457 51.5404 1.24451 51.9823 1.24451 52.0879C1.24451 52.1936 0.973363 52.6666 0.641859 53.1391L0.0392103 53.9981H0.628313C0.965996 53.9981 1.38305 53.7772 1.60524 53.4803L1.99283 52.9624L2.36069 53.4803C2.57646 53.7843 2.97379 53.9981 3.32241 53.9981C3.89535 53.9981 3.90272 53.9797 3.52749 53.4803C2.58811 52.2299 2.55959 51.9954 3.24209 51.1288L3.88276 50.3154H3.29009C2.94694 50.3154 2.54153 50.5308 2.32742 50.827L1.95742 51.3385L1.58742 50.827C1.36879 50.5246 0.968372 50.3154 0.608827 50.3154H0L0.622135 51.1056ZM10.75 52.1568C10.75 53.9675 10.76 53.9981 11.3441 53.9981C11.9282 53.9981 11.9382 53.9675 11.9382 52.1568C11.9382 50.346 11.9282 50.3154 11.3441 50.3154C10.76 50.3154 10.75 50.346 10.75 52.1568ZM12.6511 52.1568C12.6511 53.8446 12.6908 53.9981 13.1264 53.9981C13.5427 53.9981 13.6017 53.8446 13.6017 52.7603C13.6017 51.4566 13.9959 50.8383 14.6679 51.0881C14.9338 51.1868 15.0275 51.5829 15.0275 52.61C15.0275 53.9371 15.0536 53.9981 15.6216 53.9981C16.1936 53.9981 16.2157 53.9434 16.2157 52.5184C16.2157 51.4803 16.1042 50.9309 15.8423 50.677C15.4003 50.2491 14.2906 50.2005 13.8868 50.5916C13.6651 50.8063 13.6017 50.8063 13.6017 50.5916C13.6017 50.4397 13.3878 50.3154 13.1264 50.3154C12.6908 50.3154 12.6511 50.4689 12.6511 52.1568ZM21.6873 50.77C20.2234 52.1878 21.4874 54.6141 23.4425 54.139C24.0632 53.988 24.7706 53.414 24.7706 53.0611C24.7706 52.766 23.9724 52.7918 23.6573 53.097C23.2782 53.4641 22.2928 53.2563 22.201 52.7897C22.1326 52.4424 22.318 52.3869 23.5484 52.3869H24.975L24.763 51.6706C24.6463 51.2766 24.3597 50.8137 24.1261 50.6422C23.4926 50.1766 22.2317 50.2426 21.6873 50.77ZM25.2459 52.8731V55.3792H25.84C26.3666 55.3792 26.4341 55.2825 26.4341 54.5275C26.4341 53.8651 26.4975 53.7374 26.7192 53.9521C26.8761 54.104 27.2385 54.2283 27.5246 54.2283C28.963 54.2283 29.7943 52.1505 28.8299 50.9656C28.377 50.4091 28.1802 50.3506 26.7872 50.3584L25.2459 50.3672V52.8731ZM30.1068 50.8804C28.834 52.113 29.8306 54.2283 31.6842 54.2283C32.2904 54.2283 33.5672 53.0404 33.1171 52.8952C32.9446 52.8395 32.5606 52.9196 32.264 53.0733C31.5701 53.4331 30.8579 53.298 30.7562 52.7872C30.6883 52.4456 30.871 52.3869 32.0012 52.3869C33.1352 52.3869 33.3256 52.3252 33.3256 51.9577C33.3256 51.7215 33.1038 51.2554 32.8329 50.9219C32.1716 50.1073 30.9245 50.0884 30.1068 50.8804ZM33.8008 52.1825C33.8008 53.9657 33.8115 53.9981 34.3949 53.9981C34.9614 53.9981 34.989 53.9351 34.989 52.6417C34.989 51.6013 35.0791 51.2519 35.3757 51.1417C36.0562 50.8887 36.4148 51.4474 36.4148 52.7603C36.4148 53.9443 36.4422 53.9981 37.0415 53.9981C37.6672 53.9981 37.6679 53.9958 37.5439 52.4997C37.4757 51.6757 37.2941 50.8549 37.1406 50.6756C36.9512 50.4546 36.3697 50.3527 35.3312 50.3584L33.8008 50.3672V52.1825ZM42.9392 50.8804C41.7096 52.0711 42.5587 54.2283 44.2569 54.2283C45.1746 54.2283 46.5841 53.0328 45.8357 52.8889C45.5931 52.8422 45.2775 52.9175 45.1347 53.0558C44.7148 53.4625 43.8189 53.3451 43.544 52.8473C43.3028 52.4106 43.3634 52.3869 44.7238 52.3869C45.965 52.3869 46.158 52.3292 46.158 51.9577C46.158 51.7215 45.9363 51.2554 45.6654 50.9219C45.004 50.1073 43.7569 50.0884 42.9392 50.8804ZM46.6332 52.1568C46.6332 53.9675 46.6432 53.9981 47.2273 53.9981C47.7939 53.9981 47.8214 53.9351 47.8214 52.6417C47.8214 51.6013 47.9115 51.2519 48.2081 51.1417C48.8887 50.8887 49.2473 51.4474 49.2473 52.7603C49.2473 53.8446 49.3062 53.9981 49.7225 53.9981C50.1512 53.9981 50.1978 53.8446 50.1978 52.433C50.1978 50.6751 49.9759 50.3154 48.8908 50.3154C48.4856 50.3154 48.0258 50.4397 47.869 50.5916C47.6472 50.8063 47.5838 50.8063 47.5838 50.5916C47.5838 50.4397 47.3699 50.3154 47.1085 50.3154C46.6729 50.3154 46.6332 50.4689 46.6332 52.1568ZM54.7129 50.3782C54.7129 50.4127 55.0337 51.248 55.4258 52.2343C56.2697 54.3568 56.2806 54.4585 55.6635 54.4585C55.3467 54.4585 55.1882 54.612 55.1882 54.9188C55.1882 55.2438 55.3455 55.378 55.7229 55.3757C56.6164 55.3697 56.8296 55.0887 57.7865 52.6572L58.7078 50.3154H58.1561C57.6965 50.3154 57.5268 50.5363 57.1409 51.6389L56.6772 52.9624L56.2723 51.6389C55.9234 50.4986 55.7875 50.3154 55.2901 50.3154C54.9726 50.3154 54.7129 50.3437 54.7129 50.3782ZM61.2373 50.8804C60.5728 51.5238 60.4946 52.3418 61.0063 53.2998C61.6427 54.4921 63.7075 54.4873 64.3456 53.292C65.1431 51.7982 64.3104 50.3154 62.6738 50.3154C62.0847 50.3154 61.6398 50.4903 61.2373 50.8804ZM64.9313 52.1568C64.9313 53.9675 64.9413 53.9981 65.5254 53.9981C66.0765 53.9981 66.1195 53.9183 66.1195 52.8933C66.1195 51.7254 66.4142 51.2361 67.1176 51.2361C67.3868 51.2361 67.5453 51.0655 67.5453 50.7757C67.5453 50.2567 66.864 50.1467 66.4047 50.5916C66.183 50.8063 66.1195 50.8063 66.1195 50.5916C66.1195 50.4397 65.8522 50.3154 65.5254 50.3154C64.9413 50.3154 64.9313 50.346 64.9313 52.1568ZM68.1903 50.7269C67.5315 51.4418 67.5796 52.8804 68.2851 53.5638C68.6701 53.9367 68.9745 54.0205 69.5921 53.9233C70.1862 53.8301 70.397 53.8814 70.397 54.1197C70.397 54.6679 69.5745 54.9469 69.0634 54.572C68.5852 54.2214 67.7806 54.1137 67.7865 54.4009C67.8029 55.1729 69.0921 55.6669 70.2694 55.3522C71.3599 55.0606 71.5852 54.514 71.5852 52.1618V50.3554L70.0693 50.3441C68.9274 50.3356 68.4636 50.4302 68.1903 50.7269ZM72.4763 50.6358C72.2477 50.804 72.0604 51.0595 72.0604 51.2038C72.0604 51.527 72.9276 51.553 73.1298 51.2361C73.3244 50.9311 74.1298 50.9412 74.3277 51.2515C74.5485 51.5974 74.3765 51.7068 73.2135 51.9597C71.8107 52.2652 71.3787 53.0747 72.1961 53.8667C72.5899 54.2479 73.8477 54.3627 74.0559 54.0366C74.1231 53.9309 74.5038 53.8911 74.9016 53.9475L75.625 54.0504V52.6944C75.625 50.8761 75.2129 50.3131 73.8886 50.3227C73.3406 50.3267 72.7049 50.4675 72.4763 50.6358ZM76.1003 52.1798C76.1003 53.9659 76.1107 53.9981 76.6944 53.9981C77.2609 53.9981 77.2885 53.9351 77.2885 52.6417C77.2885 51.6483 77.3838 51.2499 77.6449 51.1527C78.4379 50.8581 78.7143 51.2427 78.7143 52.6417C78.7143 53.8446 78.768 53.9981 79.1896 53.9981C79.6187 53.9981 79.6648 53.8446 79.6648 52.415C79.6648 51.4283 79.5529 50.743 79.3678 50.5955C79.2045 50.4652 78.4025 50.3593 77.5855 50.36L76.1003 50.3614V52.1798ZM80.3778 52.1568C80.3778 53.8446 80.4174 53.9981 80.853 53.9981C81.2886 53.9981 81.3283 53.8446 81.3283 52.1568C81.3283 50.4689 81.2886 50.3154 80.853 50.3154C80.4174 50.3154 80.3778 50.4689 80.3778 52.1568ZM82.0412 50.7757C82.0412 51.1532 82.1997 51.2361 82.9224 51.2361H83.8035L82.8036 52.223C81.2938 53.7132 81.4193 53.9981 83.5859 53.9981C85.0117 53.9981 85.3681 53.9291 85.3681 53.6529C85.3681 53.3949 85.0854 53.3076 84.2493 53.3076H83.1305L84.1305 52.3206C84.6971 51.7616 85.1305 51.1129 85.1305 50.8245C85.1305 50.3513 85.0214 50.3154 83.5859 50.3154C82.1997 50.3154 82.0412 50.3626 82.0412 50.7757ZM86.1892 50.8804C84.9596 52.0711 85.8087 54.2283 87.5069 54.2283C88.4246 54.2283 89.8341 53.0328 89.0857 52.8889C88.8431 52.8422 88.5275 52.9175 88.3847 53.0558C87.8721 53.5523 86.5563 53.2036 86.5563 52.5711C86.5563 52.4698 87.198 52.3869 87.9822 52.3869C89.2153 52.3869 89.408 52.3289 89.408 51.9577C89.408 51.7215 89.1863 51.2554 88.9154 50.9219C88.254 50.1073 87.0069 50.0884 86.1892 50.8804ZM112.805 50.8804C112.142 51.5222 112.062 52.3416 112.569 53.291C113.172 54.4217 114.506 54.5683 115.493 53.6124C116.208 52.92 115.886 52.5941 114.962 53.0733C114.268 53.4331 113.556 53.298 113.454 52.7872C113.386 52.4456 113.569 52.3869 114.699 52.3869C115.833 52.3869 116.023 52.3252 116.023 51.9577C116.023 51.7215 115.802 51.2554 115.531 50.9219C114.869 50.1073 113.622 50.0884 112.805 50.8804ZM116.082 50.6031C116.142 50.7614 116.43 51.5898 116.721 52.4445C117.199 53.8481 117.312 53.9981 117.886 53.9981C118.457 53.9981 118.581 53.8384 119.092 52.4445C119.405 51.5898 119.709 50.7614 119.769 50.6031C119.836 50.4236 119.66 50.3154 119.302 50.3154C118.811 50.3154 118.683 50.4839 118.423 51.4667C118.255 52.0999 118.036 52.5685 117.935 52.5082C117.834 52.4482 117.616 51.93 117.451 51.3571C117.198 50.4804 117.057 50.3154 116.561 50.3154C116.19 50.3154 116.013 50.4217 116.082 50.6031ZM120.452 50.7925C119.098 51.8237 119.99 54.2283 121.727 54.2283C122.644 54.2283 124.054 53.0328 123.306 52.8889C123.063 52.8422 122.747 52.9175 122.604 53.0558C122.092 53.5523 120.776 53.2036 120.776 52.5711C120.776 52.4698 121.418 52.3869 122.202 52.3869C123.48 52.3869 123.628 52.3381 123.628 51.9162C123.628 51.2176 122.58 50.3154 121.769 50.3154C121.389 50.3154 120.796 50.5301 120.452 50.7925ZM124.103 52.1568C124.103 53.8446 124.143 53.9981 124.578 53.9981C124.989 53.9981 125.054 53.8446 125.054 52.8636C125.054 51.8191 125.456 51.0059 125.973 51.0059C126.437 51.0059 126.717 51.6732 126.717 52.7782C126.717 53.8446 126.777 53.9981 127.192 53.9981C127.615 53.9981 127.668 53.8446 127.668 52.6019C127.668 50.8013 127.398 50.3154 126.4 50.3154C125.973 50.3154 125.496 50.4397 125.339 50.5916C125.117 50.8063 125.054 50.8063 125.054 50.5916C125.054 50.4397 124.84 50.3154 124.578 50.3154C124.143 50.3154 124.103 50.4689 124.103 52.1568ZM5.28434 51.4662C5.28434 51.8881 5.44285 51.9266 7.18544 51.9266C8.92804 51.9266 9.08654 51.8881 9.08654 51.4662C9.08654 51.0443 8.92804 51.0059 7.18544 51.0059C5.44285 51.0059 5.28434 51.0443 5.28434 51.4662ZM19.2574 51.2821C19.8981 51.9026 19.5072 53.3076 18.6937 53.3076C17.7548 53.3076 17.3135 52.0467 18.0148 51.3675C18.4613 50.935 18.8701 50.9069 19.2574 51.2821ZM23.5349 51.2821C24.013 51.7452 23.859 51.9266 22.9883 51.9266C22.5309 51.9266 22.1566 51.8437 22.1566 51.7424C22.1566 51.4736 22.6849 51.0059 22.9883 51.0059C23.1321 51.0059 23.3781 51.1302 23.5349 51.2821ZM27.8471 51.3362C28.0027 51.5178 28.0959 52.0097 28.0543 52.4295C27.987 53.1076 27.8993 53.1925 27.2658 53.1925C26.6323 53.1925 26.5446 53.1076 26.4773 52.4295C26.3989 51.6379 26.7489 51.0059 27.2658 51.0059C27.4298 51.0059 27.6914 51.1546 27.8471 51.3362ZM32.1374 51.4662C32.3695 51.8863 32.318 51.9266 31.5516 51.9266C30.3765 51.9266 30.4157 51.0982 31.5944 51.0241C31.7531 51.0142 31.9974 51.213 32.1374 51.4662ZM40.5566 51.3675C40.9905 51.788 41.029 52.238 40.684 52.8625C40.1945 53.7484 39.0289 53.2515 39.0289 52.1568C39.0289 51.1035 39.8473 50.6807 40.5566 51.3675ZM44.9254 51.5238C44.989 51.8472 44.8355 51.9266 44.1471 51.9266C43.3548 51.9266 43.3097 51.8904 43.5516 51.4522C43.8679 50.8802 44.8084 50.929 44.9254 51.5238ZM63.255 51.3362C63.4107 51.5178 63.5038 52.0097 63.4622 52.4295C63.395 53.1076 63.3073 53.1925 62.6738 53.1925C62.0402 53.1925 61.9525 53.1076 61.8853 52.4295C61.8069 51.6379 62.1569 51.0059 62.6738 51.0059C62.8377 51.0059 63.0994 51.1546 63.255 51.3362ZM70.1475 51.3373C70.3036 51.5194 70.3967 51.9597 70.3547 52.3156C70.2898 52.8643 70.17 52.9624 69.5653 52.9624C68.9605 52.9624 68.8407 52.8643 68.7758 52.3156C68.6946 51.629 69.0703 51.0059 69.5653 51.0059C69.7292 51.0059 69.9913 51.155 70.1475 51.3373ZM88.2198 51.4662C88.4548 51.8916 88.4004 51.9266 87.5069 51.9266C86.6134 51.9266 86.5589 51.8916 86.794 51.4662C86.9339 51.213 87.2547 51.0059 87.5069 51.0059C87.759 51.0059 88.0798 51.213 88.2198 51.4662ZM92.2468 51.3362C92.4025 51.5178 92.4956 52.0097 92.454 52.4295C92.3944 53.0326 92.2596 53.2089 91.8112 53.2701C91.162 53.3592 90.8426 52.9902 90.8374 52.1452C90.8312 51.147 91.6715 50.6648 92.2468 51.3362ZM114.835 51.4662C115.067 51.8863 115.016 51.9266 114.249 51.9266C113.708 51.9266 113.409 51.8175 113.409 51.6198C113.409 50.8777 114.448 50.7661 114.835 51.4662ZM122.395 51.5238C122.459 51.8472 122.305 51.9266 121.617 51.9266C120.825 51.9266 120.779 51.8904 121.021 51.4522C121.338 50.8802 122.278 50.929 122.395 51.5238ZM74.4368 52.7041C74.4368 53.1587 73.7928 53.6126 73.3705 53.4556C72.9359 53.294 72.8953 52.7007 73.308 52.5393C73.8898 52.3121 74.4368 52.3918 74.4368 52.7041ZM5.28434 52.9624C5.28434 53.2404 5.65411 53.3076 7.18544 53.3076C8.71678 53.3076 9.08654 53.2404 9.08654 52.9624C9.08654 52.6843 8.71678 52.6171 7.18544 52.6171C5.65411 52.6171 5.28434 52.6843 5.28434 52.9624Z" fill="white"/>
</svg>
