<svg width="283" height="69" viewBox="0 0 283 69" fill="none" xmlns="http://www.w3.org/2000/svg">
<path fill-rule="evenodd" clip-rule="evenodd" d="M0.478516 2.99032V5.93142H3.51315H6.54777V14.4451V22.9588H9.87141H13.195V14.4451V5.93142H16.2297H19.2643V2.99032V0.0492248H9.87141H0.478516V2.99032ZM20.1313 11.504V22.9588H29.2352H38.339V20.0177V17.0766H32.5588H26.7786V15.6835V14.2903H32.5588H38.339V11.504V8.71772H32.5588H26.7786V7.32457V5.93142H32.5588H38.339V2.99032V0.0492248H29.2352H20.1313V11.504ZM39.4951 11.5V23L46.2146 22.9019C52.7885 22.8062 52.9697 22.7864 54.5685 21.9833C56.6763 20.9248 58.3757 19.0308 59.2002 16.8209C60.145 14.2888 60.1505 8.73289 59.2106 6.21655C58.3332 3.8677 56.8566 2.11511 54.8775 1.07427C53.226 0.205568 53.2107 0.20371 46.3591 0.102164L39.4951 0V11.5ZM62.7733 2.91292C65.6408 7.28092 65.6125 6.58434 63.0811 10.5065C61.8715 12.3805 60.882 14.004 60.882 14.1145C60.882 14.225 61.9499 14.2748 63.2548 14.2253L65.6275 14.1355L66.5061 12.5158C66.9893 11.6248 67.4547 10.8932 67.5405 10.8904C67.626 10.8873 68.1295 11.6511 68.6595 12.5876L69.6228 14.2903H72.0505H74.4785L72.3765 10.9706C71.2208 9.14495 70.18 7.49082 70.0644 7.29516C69.9442 7.09176 70.5728 5.82678 71.53 4.3457C72.4517 2.91912 73.4392 1.369 73.7245 0.900595L74.243 0.0492248H71.7991H69.3552L68.5688 1.59717C68.1361 2.44854 67.681 3.14512 67.5573 3.14512C67.4333 3.14512 66.9781 2.44854 66.5457 1.59717L65.759 0.0492248H63.3261H60.893L62.7733 2.91292ZM50.7608 6.62799C52.6636 7.66945 53.1963 8.64497 53.3055 11.2876C53.4726 15.3305 51.9529 17.0766 48.2672 17.0766H46.1424V11.504V5.93142H47.8152C48.9802 5.93142 49.8744 6.14287 50.7608 6.62799Z" fill="#FF2B06"/>
<path fill-rule="evenodd" clip-rule="evenodd" d="M2.19717 41.7745C2.28411 49.514 2.31752 49.9282 2.9678 51.2948C3.79847 53.0405 4.58626 53.8858 6.13226 54.6912C7.13769 55.2148 7.80305 55.3073 10.568 55.3079C13.398 55.3082 14.0069 55.2194 15.2521 54.6256C16.0831 54.2295 17.0457 53.459 17.5469 52.7888C19.1148 50.6921 19.2916 49.5198 19.2916 41.2211V33.6829H17.8302H16.3688L16.2777 41.6313C16.1768 50.4355 16.1168 50.7357 14.1949 52.0632C13.4187 52.5997 12.7661 52.7489 10.8637 52.8257C8.77892 52.9096 8.37704 52.8415 7.47895 52.2517C6.91857 51.8836 6.18667 51.1321 5.85251 50.5813C5.28592 49.6469 5.2389 49.0446 5.15403 41.6313L5.06295 33.6829H3.58467H2.10638L2.19717 41.7745ZM40.5831 35.2583V36.8336H41.9139H43.2446V35.2583V33.6829H41.9139H40.5831V35.2583ZM105.049 35.2583V36.8336H106.38H107.711V35.2583V33.6829H106.38H105.049V35.2583ZM152.955 44.2509V54.8785L158.943 54.8722C164.146 54.8668 165.087 54.7963 166.115 54.3343C170.845 52.2085 171.27 45.7661 166.798 43.972L165.923 43.6208L166.845 43.0554C169.429 41.4709 169.563 37.4205 167.104 35.2058C165.814 34.043 164.855 33.8748 158.796 33.7465L152.955 33.623V44.2509ZM222.448 35.2583V36.8336H223.779H225.11V35.2583V33.6829H223.779H222.448V35.2583ZM228.954 35.2583V36.8336H230.433H231.911V35.2583V33.6829H230.433H228.954V35.2583ZM112.442 37.2633V39.4115H111.407C110.397 39.4115 110.372 39.4387 110.372 40.5572C110.372 41.6719 110.4 41.7029 111.391 41.7029H112.409L112.499 47.6955C112.588 53.5867 112.602 53.7005 113.307 54.4265C113.931 55.0693 114.266 55.165 115.894 55.165H117.765V54.0193C117.765 52.9139 117.73 52.8735 116.789 52.8735C116.252 52.8735 115.654 52.7189 115.458 52.5298C115.208 52.2875 115.104 50.6394 115.104 46.9445V41.7029H116.434H117.765V40.5572V39.4115H116.434H115.104V37.2633V35.115H113.773H112.442V37.2633ZM164.687 37.006C165.787 37.8023 166.157 39.0981 165.704 40.562C165.168 42.2941 164.216 42.6472 159.683 42.7942L155.912 42.9162V39.5664V36.2164L159.884 36.3103C163.369 36.3925 163.958 36.4776 164.687 37.006ZM29.2714 39.5166C28.6611 39.7368 27.6964 40.261 27.1275 40.6815L26.0931 41.4457V40.4286C26.0931 39.414 26.0895 39.4115 24.7624 39.4115H23.4316V47.145V54.8785H24.7292H26.0271L26.1368 49.7945C26.2332 45.3233 26.3187 44.5906 26.8457 43.7179C27.6355 42.4098 29.0266 41.6559 30.6959 41.6313C31.7832 41.6155 32.2026 41.7616 32.8407 42.3791L33.6338 43.1468L33.7246 49.0125L33.8154 54.8785H35.1449H36.4745L36.3849 48.454C36.287 41.4405 36.2536 41.301 34.3373 39.9153C33.3576 39.2069 30.7071 38.9981 29.2714 39.5166ZM67.3034 39.382C63.9438 40.2172 61.8596 43.1966 61.7718 47.2882C61.7162 49.881 62.2772 51.6975 63.5934 53.1869C65.0066 54.786 66.5659 55.4388 68.9719 55.4388C72.4554 55.4388 74.922 53.736 75.9037 50.6537C76.0954 50.0519 76.0214 50.0093 74.7871 50.0093C73.5593 50.0093 73.4248 50.0855 72.8904 51.0834C72.1183 52.5244 70.7334 53.2734 68.8908 53.2465C66.5816 53.213 65.1855 51.8338 64.671 49.0784L64.4702 48.0043H70.4277H76.3852L76.211 46.5005C75.7952 42.9076 74.7502 41.0862 72.4542 39.9517C71.1262 39.2955 68.7211 39.0294 67.3034 39.382ZM85.2362 39.445C84.8296 39.6008 83.9981 40.1988 83.388 40.7737L82.2791 41.8192V40.6153V39.4115H80.9484H79.6176V47.145V54.8785H80.9484H82.2791V50.4005C82.2791 47.8691 82.426 45.4473 82.6171 44.8295C83.1298 43.172 84.3266 42.2213 86.1095 42.0552L87.602 41.9166V40.5208C87.602 39.1846 87.5671 39.1259 86.7887 39.1431C86.3416 39.1531 85.6428 39.2889 85.2362 39.445ZM92.7663 39.5048C90.5502 40.3349 89.3763 41.8315 89.3763 43.8259C89.3763 46.3487 90.3858 47.1138 95.4251 48.4101C97.0445 48.8269 98.6079 49.3771 98.8998 49.6329C99.4826 50.1439 99.5906 51.1896 99.1434 51.9985C98.7951 52.6292 96.7875 53.4464 95.5863 53.4464C93.4829 53.4464 91.4463 51.9739 91.4463 50.4532C91.4463 50.1181 91.1201 50.0093 90.1155 50.0093C89.0403 50.0093 88.7872 50.1055 88.7978 50.5105C88.8191 51.3317 89.5765 53.1548 90.1614 53.7933C92.0791 55.8865 97.9414 56.1457 100.354 54.2441C101.901 53.0256 102.571 50.2261 101.71 48.5783C101.185 47.5738 99.4344 46.748 96.2484 46.0019C93.1188 45.2692 92.0377 44.6127 92.0377 43.4449C92.0377 42.333 92.9615 41.643 94.6616 41.4846C96.744 41.291 98.1776 41.8272 98.7646 43.0199C99.2014 43.9067 99.3596 43.9943 100.526 43.9943C101.773 43.9943 101.803 43.9728 101.619 43.2066C101.192 41.4268 99.6213 39.8846 97.7758 39.4344C96.1615 39.0408 93.9214 39.0723 92.7663 39.5048ZM124.271 39.4433C123.097 39.787 121.456 40.91 121.048 41.6482C120.898 41.9203 120.681 42.624 120.567 43.2118L120.36 44.2807H121.724C122.878 44.2807 123.088 44.1948 123.088 43.7239C123.088 43.4174 123.402 42.8125 123.787 42.3794C124.389 41.702 124.751 41.5774 126.375 41.4886C127.889 41.4059 128.453 41.5009 129.224 41.9695C130.078 42.4888 130.185 42.6979 130.185 43.8531C130.185 45.4339 129.966 45.5522 126.193 46.005C124.729 46.1806 122.97 46.5647 122.283 46.8583C119.478 48.0575 118.733 51.7152 120.832 53.9846C122.697 56.0025 126.662 55.9521 129.474 53.8749L130.421 53.1751L130.609 53.9027C130.844 54.8112 132.539 55.5625 133.764 55.3016C134.505 55.1441 134.621 54.9877 134.621 54.1398C134.621 53.2972 134.522 53.16 133.913 53.16C133.524 53.16 133.125 52.956 133.026 52.7068C132.927 52.4577 132.846 50.0024 132.846 47.2507C132.846 41.5141 132.675 40.9224 130.732 39.9623C129.308 39.2585 125.849 38.9807 124.271 39.4433ZM140.387 39.475C138.16 40.2395 136.975 41.7146 136.891 43.8256C136.797 46.1749 138.086 47.137 143.035 48.4101C146.304 49.2511 147.041 49.7117 147.041 50.9129C147.041 52.5336 144.725 53.6904 142.212 53.3255C140.494 53.076 139.426 52.2557 139.182 50.9994C138.998 50.0488 138.939 50.0093 137.693 50.0093C136.542 50.0093 136.396 50.0823 136.402 50.6537C136.41 51.5187 137.359 53.473 138.064 54.08C139.59 55.3918 143.299 55.9154 146.016 55.2028C148.862 54.4561 150.549 50.9946 149.252 48.5657C148.674 47.4815 147.259 46.8105 143.859 46.0076C140.704 45.2626 139.648 44.6138 139.648 43.4214C139.648 42.1927 140.841 41.4153 142.719 41.4207C144.566 41.4259 145.524 41.8644 146.301 43.0605C146.792 43.8161 147.083 43.9742 148.002 43.9831C148.926 43.9926 149.111 43.8966 149.111 43.4071C149.111 41.9068 147.267 39.9276 145.414 39.4398C143.949 39.0537 141.565 39.0703 140.387 39.475ZM178.682 39.445C178.276 39.6008 177.444 40.1988 176.834 40.7737L175.725 41.8192V40.6153V39.4115H174.395H173.064V47.145V54.8785H174.395H175.725V50.1874C175.725 45.1122 175.939 44.1286 177.316 42.8789C177.836 42.4072 178.536 42.1503 179.56 42.0549L181.048 41.9166V40.5208C181.048 39.1846 181.013 39.1259 180.235 39.1431C179.788 39.1531 179.089 39.2889 178.682 39.445ZM187.188 39.4103C184.974 40.0559 183.414 41.7616 183.414 43.5363C183.414 44.2114 183.522 44.2807 184.574 44.2807C185.638 44.2807 185.762 44.1979 186.077 43.2734C186.495 42.046 187.628 41.4164 189.417 41.4164C191.992 41.4164 193.178 42.203 193.168 43.9038C193.16 45.307 192.819 45.4972 189.587 45.901C185.705 46.3862 184.926 46.646 183.713 47.8573C182.9 48.6699 182.701 49.1193 182.593 50.3902C182.417 52.4442 183.089 53.8107 184.735 54.7451C186.863 55.9532 189.849 55.6419 192.047 53.9832L193.14 53.1585L193.528 53.9445C194.046 54.9911 195.259 55.5279 196.569 55.2901C197.51 55.1191 197.608 55.0112 197.608 54.1496C197.608 53.3244 197.5 53.186 196.795 53.1073L195.982 53.0168L195.834 47.3263L195.686 41.6361L194.565 40.6981C192.894 39.2997 189.562 38.718 187.188 39.4103ZM240.023 39.394C237.797 39.9098 236.051 41.7384 236.051 43.5532C236.051 44.2048 236.169 44.2807 237.177 44.2807C238.199 44.2807 238.35 44.1788 238.804 43.1808C239.385 41.9068 240.296 41.4164 242.083 41.4164C244.654 41.4164 245.81 42.2038 245.81 43.9551C245.81 45.2815 245.257 45.5696 241.996 45.9403C238.806 46.3026 237.28 46.8683 236.051 48.1426C235.416 48.802 235.312 49.1778 235.312 50.8201C235.312 53.009 235.802 53.8852 237.57 54.8591C239.531 55.9392 243.434 55.4104 244.937 53.8614C245.749 53.0242 246.106 52.9715 246.106 53.6884C246.106 54.7614 247.692 55.5654 249.25 55.2821C250.143 55.1197 250.246 55.0031 250.246 54.1496C250.246 53.3244 250.138 53.186 249.432 53.1073L248.619 53.0168L248.471 47.3779L248.323 41.739L247.448 40.8548C246.024 39.416 242.727 38.7673 240.023 39.394ZM271.875 39.5355C269.824 40.1828 268.284 41.9675 268.284 43.6987C268.284 44.1977 268.474 44.2807 269.615 44.2807C270.736 44.2807 270.946 44.1928 270.946 43.7239C270.946 43.4174 271.267 42.8053 271.659 42.3634C272.313 41.6275 272.545 41.5597 274.408 41.5597C277.198 41.5597 278.043 42.0953 278.043 43.8637C278.043 45.4339 277.815 45.5559 274.051 45.9984C269.338 46.5529 267.545 47.8949 267.545 50.8686C267.545 53.6606 269.161 55.2074 272.28 55.3998C273.918 55.5009 274.44 55.4041 275.841 54.7402C276.744 54.3123 277.638 53.7228 277.826 53.4301C278.14 52.9437 278.195 52.9764 278.476 53.8136C278.859 54.9582 280.082 55.5746 281.469 55.3225C282.387 55.1558 282.479 55.049 282.479 54.1496C282.479 53.2969 282.381 53.16 281.771 53.16C281.382 53.16 280.983 52.956 280.884 52.7068C280.785 52.4577 280.704 49.9964 280.704 47.2375C280.704 41.4623 280.541 40.9476 278.387 39.9379C276.748 39.1694 273.643 38.9775 271.875 39.5355ZM45.6103 39.5773C45.6103 39.685 46.907 43.1717 48.4921 47.3257L51.3741 54.8785L52.8539 54.878L54.3339 54.8771L56.8159 48.505C58.1809 44.9999 59.5456 41.5135 59.8487 40.7571L60.3997 39.3814L58.8823 39.4682L57.3647 39.5547L55.2569 45.4754C54.0974 48.7318 53.0641 51.4778 52.9609 51.5777C52.8577 51.678 51.857 49.0136 50.7368 45.6573L48.7008 39.5547L47.1554 39.4682C46.3055 39.4203 45.6103 39.4696 45.6103 39.5773ZM198.654 40.0181C199.115 41.4256 202.425 52.545 202.715 53.6612L203.031 54.8785H204.541H206.051L207.55 49.0784L209.05 43.2782L209.444 44.5671C209.66 45.2761 210.38 47.8539 211.042 50.2957L212.246 54.7353L213.725 54.8195L215.205 54.9035L216.021 52.0985C216.47 50.5555 217.501 47.1038 218.312 44.4279C219.123 41.7519 219.787 39.5214 219.787 39.4713C219.787 39.4212 219.167 39.4195 218.409 39.4673L217.032 39.5547L215.526 45.1939C214.698 48.2956 213.934 50.9147 213.827 51.0143C213.721 51.1137 212.983 48.576 212.188 45.3749L210.741 39.5547L209.252 39.4699L207.763 39.3848L206.531 44.0527C205.853 46.62 205.138 49.4175 204.941 50.2696L204.582 51.8186L203.217 46.4029C202.467 43.424 201.76 40.6322 201.647 40.1991C201.457 39.4702 201.33 39.4115 199.949 39.4115C198.562 39.4115 198.47 39.4547 198.654 40.0181ZM251.569 40.4856C252.604 43.0643 257.047 55.1985 257.047 55.4471C257.047 55.598 256.722 56.4341 256.324 57.3049L255.601 58.8885H254.106H252.611V60.0342C252.611 61.0857 252.678 61.1825 253.425 61.2103C255.667 61.2939 256.836 60.9683 257.554 60.0591C258.494 58.8705 260.991 52.8088 264.563 43.0488L265.904 39.382L264.382 39.4685L262.86 39.5547L260.732 45.7129C258.836 51.1957 258.568 51.7926 258.286 51.155C258.112 50.7611 257.132 47.9579 256.109 44.9252L254.249 39.4115H252.694H251.138L251.569 40.4856ZM40.5831 47.2882V54.8785H41.9139H43.2446V47.2882V39.6979H41.9139H40.5831V47.2882ZM105.049 47.2882V54.8785H106.38H107.711V47.2882V39.6979H106.38H105.049V47.2882ZM222.448 47.2882V54.8785H223.779H225.11V47.2882V39.6979H223.779H222.448V47.2882ZM228.954 49.1193C228.954 59.3732 229.036 58.8885 227.303 58.8885C226.666 58.8885 226.588 59.0134 226.588 60.0342C226.588 61.1725 226.596 61.1799 227.727 61.1799C229.35 61.1799 230.605 60.6841 231.226 59.7979C231.714 59.1022 231.772 58.1415 231.858 49.3648L231.953 39.6979H230.454H228.954V49.1193ZM71.5059 42.1191C72.2854 42.6137 73.3893 44.582 73.4011 45.498C73.407 45.9532 73.0031 45.9993 69.0029 45.9993H64.5985L64.8434 44.9472C65.5371 41.9684 68.9713 40.5105 71.5059 42.1191ZM164.982 45.6948C166.487 46.3567 166.854 46.97 166.854 48.8229C166.854 51.7316 165.144 52.5871 159.33 52.5871H155.912V48.8636V45.14L159.831 45.1463C163.034 45.1515 163.974 45.2514 164.982 45.6948ZM129.735 51.1673C129.423 51.7519 128.779 52.2686 127.888 52.6504C125.009 53.8841 122.726 53.1557 122.555 50.9493C122.432 49.3519 123.585 48.4058 125.968 48.1489C126.905 48.0478 128.204 47.8129 128.854 47.6268L130.037 47.2882L130.126 48.7793C130.182 49.7423 130.044 50.5881 129.735 51.1673ZM193.119 49.0019C193.016 50.5753 192.866 50.9914 192.136 51.7296C191.151 52.7252 188.818 53.5051 187.557 53.2608C185.711 52.9033 184.809 51.2632 185.622 49.7415C186.196 48.6662 186.705 48.454 189.789 48.0037C191.081 47.8152 192.337 47.5489 192.581 47.4117C192.825 47.2745 193.073 47.1585 193.133 47.1536C193.193 47.149 193.186 47.9805 193.119 49.0019ZM245.757 49.0019C245.653 50.5753 245.503 50.9914 244.773 51.7296C243.794 52.7192 241.392 53.528 240.226 53.2605C238.547 52.8753 237.645 51.4546 238.165 50.0113C238.575 48.871 239.512 48.4285 242.409 48.006C243.71 47.8161 244.975 47.5489 245.218 47.4117C245.462 47.2745 245.711 47.1585 245.77 47.1536C245.83 47.149 245.824 47.9805 245.757 49.0019ZM277.622 51.1129C277.355 51.6121 276.616 52.2165 275.808 52.5951C272.988 53.9173 270.586 53.1843 270.413 50.9493C270.279 49.2196 271.362 48.4554 274.571 48.014C275.933 47.8267 277.238 47.5586 277.471 47.4182C278.102 47.0379 278.222 49.9878 277.622 51.1129ZM13.3773 61.4664C13.3773 61.8865 13.5745 62.0392 14.1166 62.0392C14.6586 62.0392 14.8559 61.8865 14.8559 61.4664C14.8559 61.0462 14.6586 60.8935 14.1166 60.8935C13.5745 60.8935 13.3773 61.0462 13.3773 61.4664ZM24.3188 62.0965C24.3188 63.0323 24.2398 63.223 23.9639 62.9558C23.4165 62.4256 22.0187 62.5485 21.3616 63.1849C20.4899 64.0293 20.5588 65.8705 21.4962 66.7782C22.2074 67.4673 23.5375 67.7242 23.8507 67.2333C23.9376 67.097 24.3448 67.0474 24.7553 67.1236L25.5016 67.2616V64.0777C25.5016 61.0846 25.4662 60.8935 24.9102 60.8935C24.4125 60.8935 24.3188 61.0846 24.3188 62.0965ZM50.9332 62.0742C50.9332 63.0675 50.8658 63.201 50.5089 62.914C50.2755 62.7264 49.6436 62.6141 49.1042 62.6642C48.3179 62.7372 48.0228 62.9555 47.6126 63.7675C46.5909 65.7897 47.953 67.8654 49.9502 67.3304C50.4095 67.2072 51.0846 67.1356 51.4507 67.1711C52.1045 67.2347 52.1161 67.1814 52.1161 64.0648C52.1161 61.0846 52.0806 60.8935 51.5246 60.8935C51.0287 60.8935 50.9332 61.0846 50.9332 62.0742ZM66.3104 64.0442V67.1949H67.0497H67.789V64.0442V60.8935H67.0497H66.3104V64.0442ZM100.022 61.4664C100.022 61.8482 100.219 62.0392 100.613 62.0392C101.008 62.0392 101.205 61.8482 101.205 61.4664C101.205 61.0846 101.008 60.8935 100.613 60.8935C100.219 60.8935 100.022 61.0846 100.022 61.4664ZM115.104 61.878C115.104 62.8444 115.084 62.8595 114.062 62.6989C112.171 62.4015 110.979 64.4257 111.962 66.266C112.547 67.3639 113.011 67.5226 114.979 67.2986L116.582 67.1161V64.0047V60.8935H115.843C115.198 60.8935 115.104 61.019 115.104 61.878ZM119.244 61.4664C119.244 61.9301 119.441 62.0392 120.279 62.0392H121.314V64.6171C121.314 67.1757 121.319 67.1949 122.053 67.1949C122.787 67.1949 122.792 67.1757 122.792 64.6171V62.0392H123.827C124.665 62.0392 124.862 61.9301 124.862 61.4664C124.862 60.9336 124.665 60.8935 122.053 60.8935C119.441 60.8935 119.244 60.9336 119.244 61.4664ZM125.454 64.0442V67.1949H127.967C130.284 67.1949 130.481 67.1499 130.481 66.6221C130.481 66.1079 130.284 66.0492 128.559 66.0492C126.705 66.0492 126.636 66.0234 126.636 65.3331C126.636 64.656 126.725 64.6171 128.263 64.6171C129.692 64.6171 129.889 64.5478 129.889 64.0442C129.889 63.5407 129.692 63.4714 128.263 63.4714C126.725 63.4714 126.636 63.4324 126.636 62.7553C126.636 62.071 126.715 62.0392 128.411 62.0392C129.988 62.0392 130.185 61.9756 130.185 61.4664C130.185 60.9413 129.988 60.8935 127.819 60.8935H125.454V64.0442ZM131.072 64.0442V67.1949H132.97C134.014 67.1949 135.084 67.1147 135.347 67.017C136.092 66.7398 136.691 65.3489 136.691 63.8933C136.691 62.8103 136.533 62.4147 135.826 61.7307C135.046 60.9751 134.772 60.8935 133.017 60.8935H131.072V64.0442ZM63.649 61.896C63.649 62.3417 63.4813 62.6121 63.2054 62.6121C62.9614 62.6121 62.7618 62.8054 62.7618 63.0417C62.7618 63.278 62.9614 63.4714 63.2054 63.4714C63.5502 63.4714 63.649 63.852 63.649 65.1799C63.649 66.5759 63.7537 66.9426 64.2209 67.1849C65.1758 67.6798 66.0147 67.5506 66.0147 66.9085C66.0147 66.5903 65.8175 66.3356 65.5711 66.3356C65.2361 66.3356 65.1276 65.9856 65.1276 64.9035C65.1276 63.8214 65.2361 63.4714 65.5711 63.4714C65.8151 63.4714 66.0147 63.278 66.0147 63.0417C66.0147 62.8054 65.8151 62.6121 65.5711 62.6121C65.2952 62.6121 65.1276 62.3417 65.1276 61.896C65.1276 61.3232 64.9797 61.1799 64.3883 61.1799C63.7968 61.1799 63.649 61.3232 63.649 61.896ZM160.052 61.896C160.052 62.3417 159.885 62.6121 159.609 62.6121C159.365 62.6121 159.165 62.8054 159.165 63.0417C159.165 63.278 159.365 63.4714 159.609 63.4714C159.954 63.4714 160.052 63.852 160.052 65.1799C160.052 66.5759 160.157 66.9426 160.624 67.1849C161.579 67.6798 162.418 67.5506 162.418 66.9085C162.418 66.5903 162.221 66.3356 161.974 66.3356C161.639 66.3356 161.531 65.9856 161.531 64.9035C161.531 63.8214 161.639 63.4714 161.974 63.4714C162.218 63.4714 162.418 63.278 162.418 63.0417C162.418 62.8054 162.218 62.6121 161.974 62.6121C161.699 62.6121 161.531 62.3417 161.531 61.896C161.531 61.3232 161.383 61.1799 160.792 61.1799C160.2 61.1799 160.052 61.3232 160.052 61.896ZM134.752 62.5946C135.352 63.2362 135.443 65.0043 134.91 65.6273C134.711 65.8593 134.099 66.0492 133.55 66.0492H132.551V64.0442V62.0392H133.392C133.855 62.0392 134.467 62.2893 134.752 62.5946ZM0.774184 63.5954C1.20031 64.1364 1.54866 64.6864 1.54866 64.8179C1.54866 64.9493 1.21125 65.5379 0.798728 66.126L0.0487933 67.1949H0.781873C1.20208 67.1949 1.72107 66.9199 1.99756 66.5504L2.47987 65.906L2.93764 66.5504C3.20615 66.9288 3.70059 67.1949 4.1344 67.1949C4.84737 67.1949 4.85654 67.172 4.3896 66.5504C3.22064 64.9946 3.18515 64.7027 4.03445 63.6243L4.8317 62.6121H4.09419C3.66717 62.6121 3.16268 62.8802 2.89624 63.2488L2.43581 63.8852L1.97538 63.2488C1.70332 62.8724 1.20504 62.6121 0.757624 62.6121H0L0.774184 63.5954ZM13.3773 64.9035C13.3773 67.1568 13.3897 67.1949 14.1166 67.1949C14.8435 67.1949 14.8559 67.1568 14.8559 64.9035C14.8559 62.6502 14.8435 62.6121 14.1166 62.6121C13.3897 62.6121 13.3773 62.6502 13.3773 64.9035ZM15.743 64.9035C15.743 67.0039 15.7924 67.1949 16.3345 67.1949C16.8525 67.1949 16.9259 67.0039 16.9259 65.6545C16.9259 64.0322 17.4165 63.2628 18.2528 63.5736C18.5837 63.6965 18.7002 64.1894 18.7002 65.4675C18.7002 67.119 18.7327 67.1949 19.4395 67.1949C20.1513 67.1949 20.1788 67.1267 20.1788 65.3535C20.1788 64.0617 20.0401 63.378 19.7142 63.062C19.1642 62.5296 17.7832 62.4691 17.2807 62.9558C17.0048 63.223 16.9259 63.223 16.9259 62.9558C16.9259 62.7667 16.6597 62.6121 16.3345 62.6121C15.7924 62.6121 15.743 62.8031 15.743 64.9035ZM26.9876 63.1778C25.166 64.9422 26.7389 67.9614 29.1718 67.3702C29.9442 67.1823 30.8245 66.468 30.8245 66.0289C30.8245 65.6617 29.8312 65.6937 29.4391 66.0735C28.9674 66.5304 27.7411 66.2718 27.627 65.6912C27.5418 65.2589 27.7724 65.1899 29.3037 65.1899H31.0788L30.8151 64.2986C30.6699 63.8082 30.3132 63.2322 30.0225 63.0188C29.2342 62.4394 27.6651 62.5216 26.9876 63.1778ZM31.416 65.7949V68.9135H32.1552C32.8106 68.9135 32.8945 68.7932 32.8945 67.8537C32.8945 67.0294 32.9735 66.8704 33.2494 67.1376C33.4446 67.3267 33.8955 67.4813 34.2516 67.4813C36.0415 67.4813 37.076 64.8958 35.8759 63.4212C35.3123 62.7286 35.0675 62.6559 33.334 62.6656L31.416 62.6765V65.7949ZM37.4648 63.3152C35.881 64.8491 37.1212 67.4813 39.4278 67.4813C40.1822 67.4813 41.771 66.0031 41.211 65.8223C40.9963 65.753 40.5184 65.8527 40.1493 66.044C39.2858 66.4917 38.3996 66.3236 38.273 65.688C38.1884 65.263 38.4158 65.1899 39.8223 65.1899C41.2334 65.1899 41.4703 65.1132 41.4703 64.6557C41.4703 64.3619 41.1944 63.7818 40.8573 63.3668C40.0343 62.3531 38.4824 62.3297 37.4648 63.3152ZM42.0617 64.9356C42.0617 67.1545 42.075 67.1949 42.801 67.1949C43.506 67.1949 43.5403 67.1164 43.5403 65.507C43.5403 64.2123 43.6524 63.7775 44.0214 63.6403C44.8684 63.3256 45.3146 64.0207 45.3146 65.6545C45.3146 67.1279 45.3486 67.1949 46.0944 67.1949C46.873 67.1949 46.8739 67.192 46.7195 65.3303C46.6347 64.3049 46.4087 63.2835 46.2177 63.0603C45.982 62.7854 45.2584 62.6585 43.9661 62.6656L42.0617 62.6765V64.9356ZM53.4335 63.3152C51.9034 64.7969 52.96 67.4813 55.0732 67.4813C56.2153 67.4813 57.9692 65.9936 57.038 65.8146C56.736 65.7565 56.3433 65.8501 56.1656 66.0223C55.6431 66.5284 54.5282 66.3823 54.1861 65.7628C53.8859 65.2194 53.9613 65.1899 55.6543 65.1899C57.1988 65.1899 57.4389 65.118 57.4389 64.6557C57.4389 64.3619 57.163 63.7818 56.8259 63.3668C56.003 62.3531 54.451 62.3297 53.4335 63.3152ZM58.0304 64.9035C58.0304 67.1568 58.0428 67.1949 58.7697 67.1949C59.4747 67.1949 59.509 67.1164 59.509 65.507C59.509 64.2123 59.621 63.7775 59.9901 63.6403C60.837 63.3256 61.2833 64.0207 61.2833 65.6545C61.2833 67.0039 61.3566 67.1949 61.8747 67.1949C62.4082 67.1949 62.4661 67.0039 62.4661 65.2472C62.4661 63.0598 62.1899 62.6121 60.8397 62.6121C60.3355 62.6121 59.7633 62.7667 59.5681 62.9558C59.2922 63.223 59.2132 63.223 59.2132 62.9558C59.2132 62.7667 58.9471 62.6121 58.6218 62.6121C58.0798 62.6121 58.0304 62.8031 58.0304 64.9035ZM68.0847 62.6903C68.0847 62.7332 68.4839 63.7727 68.9719 65C70.0219 67.6412 70.0356 67.7678 69.2676 67.7678C68.8734 67.7678 68.6761 67.9588 68.6761 68.3406C68.6761 68.745 68.8719 68.912 69.3415 68.9092C70.4534 68.9017 70.7187 68.552 71.9095 65.5262L73.056 62.6121H72.3693C71.7974 62.6121 71.5863 62.887 71.106 64.259L70.5291 65.906L70.0252 64.259C69.5911 62.8401 69.4219 62.6121 68.803 62.6121C68.4079 62.6121 68.0847 62.6473 68.0847 62.6903ZM76.2036 63.3152C75.3768 64.1158 75.2795 65.1338 75.9162 66.3259C76.7081 67.8096 79.2776 67.8036 80.0716 66.3162C81.064 64.4572 80.0278 62.6121 77.9912 62.6121C77.2581 62.6121 76.7045 62.8298 76.2036 63.3152ZM80.8005 64.9035C80.8005 67.1568 80.8129 67.1949 81.5398 67.1949C82.2255 67.1949 82.2791 67.0955 82.2791 65.8201C82.2791 64.3667 82.6458 63.7578 83.5211 63.7578C83.8561 63.7578 84.0534 63.5455 84.0534 63.1849C84.0534 62.539 83.2056 62.4021 82.6339 62.9558C82.358 63.223 82.2791 63.223 82.2791 62.9558C82.2791 62.7667 81.9464 62.6121 81.5398 62.6121C80.8129 62.6121 80.8005 62.6502 80.8005 64.9035ZM84.8559 63.1242C84.0362 64.0138 84.096 65.804 84.9739 66.6544C85.453 67.1184 85.8318 67.2227 86.6004 67.1018C87.3397 66.9858 87.602 67.0497 87.602 67.3461C87.602 68.0284 86.5785 68.3756 85.9424 67.909C85.3474 67.4727 84.3461 67.3387 84.3535 67.6962C84.3739 68.6568 85.9782 69.2715 87.4432 68.88C88.8002 68.5171 89.0805 67.8368 89.0805 64.9098V62.6619L87.1942 62.6479C85.7733 62.6373 85.196 62.755 84.8559 63.1242ZM90.1895 63.0108C89.905 63.2202 89.672 63.5381 89.672 63.7177C89.672 64.1198 90.751 64.1522 91.0027 63.7578C91.2449 63.3783 92.2471 63.3909 92.4934 63.777C92.7681 64.2075 92.554 64.3435 91.1068 64.6583C89.3612 65.0384 88.8236 66.0458 89.8408 67.0314C90.3308 67.5057 91.896 67.6486 92.1551 67.2427C92.2388 67.1113 92.7125 67.0617 93.2076 67.1319L94.1077 67.2599V65.5726C94.1077 63.3098 93.5949 62.6092 91.9469 62.6212C91.265 62.6261 90.4739 62.8014 90.1895 63.0108ZM94.6991 64.9321C94.6991 67.1548 94.7121 67.1949 95.4384 67.1949C96.1434 67.1949 96.1777 67.1164 96.1777 65.507C96.1777 64.2708 96.2963 63.775 96.6213 63.6541C97.6081 63.2875 97.952 63.7661 97.952 65.507C97.952 67.0039 98.0188 67.1949 98.5434 67.1949C99.0775 67.1949 99.1349 67.0039 99.1349 65.2249C99.1349 63.9969 98.9956 63.1443 98.7652 62.9607C98.5621 62.7985 97.564 62.6668 96.5474 62.6676L94.6991 62.6694V64.9321ZM100.022 64.9035C100.022 67.0039 100.071 67.1949 100.613 67.1949C101.155 67.1949 101.205 67.0039 101.205 64.9035C101.205 62.8031 101.155 62.6121 100.613 62.6121C100.071 62.6121 100.022 62.8031 100.022 64.9035ZM102.092 63.1849C102.092 63.6547 102.289 63.7578 103.189 63.7578H104.285L103.041 64.986C101.162 66.8403 101.318 67.1949 104.014 67.1949C105.788 67.1949 106.232 67.109 106.232 66.7653C106.232 66.4442 105.88 66.3356 104.84 66.3356H103.448L104.692 65.1074C105.397 64.4117 105.936 63.6045 105.936 63.2456C105.936 62.6568 105.801 62.6121 104.014 62.6121C102.289 62.6121 102.092 62.6708 102.092 63.1849ZM107.254 63.3152C105.724 64.7969 106.78 67.4813 108.893 67.4813C110.036 67.4813 111.789 65.9936 110.858 65.8146C110.556 65.7565 110.164 65.8501 109.986 66.0223C109.348 66.6401 107.711 66.2062 107.711 65.4191C107.711 65.293 108.509 65.1899 109.485 65.1899C111.019 65.1899 111.259 65.1177 111.259 64.6557C111.259 64.3619 110.983 63.7818 110.646 63.3668C109.823 62.3531 108.271 62.3297 107.254 63.3152ZM140.374 63.3152C139.549 64.1138 139.45 65.1335 140.081 66.315C140.832 67.7219 142.491 67.9044 143.719 66.7149C144.609 65.8533 144.209 65.4477 143.058 66.044C142.195 66.4917 141.309 66.3236 141.182 65.688C141.098 65.263 141.325 65.1899 142.731 65.1899C144.143 65.1899 144.379 65.1132 144.379 64.6557C144.379 64.3619 144.103 63.7818 143.766 63.3668C142.943 62.3531 141.391 62.3297 140.374 63.3152ZM144.452 62.9701C144.527 63.1672 144.885 64.198 145.247 65.2615C145.843 67.0082 145.983 67.1949 146.698 67.1949C147.408 67.1949 147.562 66.9961 148.198 65.2615C148.587 64.198 148.966 63.1672 149.04 62.9701C149.124 62.7467 148.905 62.6121 148.459 62.6121C147.849 62.6121 147.689 62.8217 147.365 64.0448C147.156 64.8327 146.884 65.4159 146.758 65.3409C146.633 65.2661 146.362 64.6214 146.156 63.9084C145.841 62.8174 145.665 62.6121 145.049 62.6121C144.587 62.6121 144.366 62.7444 144.452 62.9701ZM149.89 63.2058C148.205 64.489 149.316 67.4813 151.477 67.4813C152.619 67.4813 154.373 65.9936 153.441 65.8146C153.139 65.7565 152.747 65.8501 152.569 66.0223C151.931 66.6401 150.294 66.2062 150.294 65.4191C150.294 65.293 151.092 65.1899 152.068 65.1899C153.658 65.1899 153.842 65.1292 153.842 64.6042C153.842 63.7349 152.539 62.6121 151.53 62.6121C151.056 62.6121 150.319 62.8793 149.89 63.2058ZM154.434 64.9035C154.434 67.0039 154.483 67.1949 155.025 67.1949C155.536 67.1949 155.617 67.0039 155.617 65.7831C155.617 64.4833 156.118 63.4714 156.761 63.4714C157.338 63.4714 157.687 64.3017 157.687 65.6768C157.687 67.0039 157.761 67.1949 158.278 67.1949C158.804 67.1949 158.869 67.0039 158.869 65.4574C158.869 63.2167 158.534 62.6121 157.292 62.6121C156.761 62.6121 156.167 62.7667 155.971 62.9558C155.696 63.223 155.617 63.223 155.617 62.9558C155.617 62.7667 155.35 62.6121 155.025 62.6121C154.483 62.6121 154.434 62.8031 154.434 64.9035ZM6.57583 64.0442C6.57583 64.5692 6.77307 64.6171 8.94156 64.6171C11.11 64.6171 11.3073 64.5692 11.3073 64.0442C11.3073 63.5192 11.11 63.4714 8.94156 63.4714C6.77307 63.4714 6.57583 63.5192 6.57583 64.0442ZM23.9639 63.8151C24.7612 64.5873 24.2747 66.3356 23.2625 66.3356C22.0941 66.3356 21.545 64.7666 22.4176 63.9213C22.9733 63.3831 23.4819 63.3482 23.9639 63.8151ZM29.2868 63.8151C29.8818 64.3914 29.6902 64.6171 28.6067 64.6171C28.0374 64.6171 27.5717 64.514 27.5717 64.3879C27.5717 64.0534 28.229 63.4714 28.6067 63.4714C28.7856 63.4714 29.0916 63.626 29.2868 63.8151ZM34.6529 63.8824C34.8466 64.1084 34.9625 64.7205 34.9107 65.2429C34.827 66.0867 34.7179 66.1924 33.9295 66.1924C33.1412 66.1924 33.032 66.0867 32.9484 65.2429C32.8508 64.2579 33.2864 63.4714 33.9295 63.4714C34.1336 63.4714 34.4592 63.6564 34.6529 63.8824ZM39.9917 64.0442C40.2806 64.5669 40.2165 64.6171 39.2628 64.6171C37.8005 64.6171 37.8493 63.5862 39.316 63.494C39.5135 63.4817 39.8175 63.7291 39.9917 64.0442ZM50.4686 63.9213C51.0086 64.4446 51.0565 65.0046 50.6271 65.7817C50.018 66.8841 48.5675 66.2657 48.5675 64.9035C48.5675 63.5928 49.5859 63.0666 50.4686 63.9213ZM55.9051 64.1158C55.9843 64.5182 55.7933 64.6171 54.9366 64.6171C53.9507 64.6171 53.8945 64.5721 54.1955 64.0267C54.5891 63.315 55.7596 63.3757 55.9051 64.1158ZM78.7145 63.8824C78.9082 64.1084 79.0241 64.7205 78.9724 65.2429C78.8887 66.0867 78.7796 66.1924 77.9912 66.1924C77.2028 66.1924 77.0937 66.0867 77.01 65.2429C76.9124 64.2579 77.348 63.4714 77.9912 63.4714C78.1952 63.4714 78.5208 63.6564 78.7145 63.8824ZM87.2915 63.8838C87.4857 64.1104 87.6017 64.6583 87.5493 65.1011C87.4686 65.784 87.3195 65.906 86.567 65.906C85.8144 65.906 85.6653 65.784 85.5846 65.1011C85.4835 64.2467 85.951 63.4714 86.567 63.4714C86.771 63.4714 87.0972 63.657 87.2915 63.8838ZM109.781 64.0442C110.073 64.5735 110.005 64.6171 108.893 64.6171C107.782 64.6171 107.714 64.5735 108.006 64.0442C108.181 63.7291 108.58 63.4714 108.893 63.4714C109.207 63.4714 109.606 63.7291 109.781 64.0442ZM114.792 63.8824C114.986 64.1084 115.101 64.7205 115.05 65.2429C114.975 65.9933 114.808 66.2127 114.25 66.2889C113.442 66.3998 113.044 65.9406 113.038 64.8892C113.03 63.6469 114.076 63.0469 114.792 63.8824ZM142.901 64.0442C143.19 64.5669 143.126 64.6171 142.172 64.6171C141.498 64.6171 141.127 64.4813 141.127 64.2353C141.127 63.3118 142.419 63.1729 142.901 64.0442ZM152.308 64.1158C152.388 64.5182 152.197 64.6171 151.34 64.6171C150.354 64.6171 150.298 64.5721 150.599 64.0267C150.992 63.315 152.163 63.3757 152.308 64.1158ZM92.6291 65.5846C92.6291 66.1503 91.8277 66.7151 91.3022 66.5198C90.7614 66.3187 90.7108 65.5803 91.2245 65.3795C91.9484 65.0968 92.6291 65.1959 92.6291 65.5846ZM6.57583 65.906C6.57583 66.252 7.03597 66.3356 8.94156 66.3356C10.8472 66.3356 11.3073 66.252 11.3073 65.906C11.3073 65.56 10.8472 65.4763 8.94156 65.4763C7.03597 65.4763 6.57583 65.56 6.57583 65.906Z" fill="black"/>
</svg>
