<svg width="138" height="138" viewBox="0 0 138 138" fill="none" xmlns="http://www.w3.org/2000/svg">
<path fill-rule="evenodd" clip-rule="evenodd" d="M69 0.25C31.0313 0.25 0.25 31.0313 0.25 69C0.25 106.969 31.0313 137.75 69 137.75C106.969 137.75 137.75 106.969 137.75 69C137.75 31.0313 106.969 0.25 69 0.25ZM98.8 57.375C99.3487 56.7478 99.7665 56.0171 100.029 55.2261C100.291 54.435 100.392 53.5995 100.327 52.7687C100.261 51.9378 100.03 51.1285 99.6473 50.3883C99.2645 49.6481 98.7374 48.9919 98.0972 48.4584C97.4569 47.9249 96.7165 47.5248 95.9194 47.2816C95.1222 47.0385 94.2845 46.9573 93.4555 47.0427C92.6265 47.1281 91.823 47.3784 91.0922 47.779C90.3613 48.1795 89.718 48.7222 89.2 49.375L62.325 81.6188L48.4187 67.7063C47.24 66.5678 45.6612 65.9378 44.0225 65.952C42.3838 65.9663 40.8162 66.6236 39.6574 67.7824C38.4986 68.9412 37.8413 70.5088 37.827 72.1475C37.8128 73.7862 38.4428 75.365 39.5813 76.5437L58.3313 95.2938C58.9454 95.9075 59.6806 96.3865 60.4901 96.7004C61.2996 97.0142 62.1656 97.156 63.0329 97.1166C63.9002 97.0772 64.7499 96.8575 65.5276 96.4716C66.3053 96.0856 66.9941 95.5419 67.55 94.875L98.8 57.375Z" fill="white"/>
</svg>
