<svg width="561" height="537" viewBox="0 0 561 537" fill="none" xmlns="http://www.w3.org/2000/svg">
<path d="M172.089 76.8792C276.866 176.263 405.471 240.403 534.718 301.334C558.136 312.374 581.285 323.979 604.505 335.428C619.817 342.977 576.308 316.135 561.656 307.373C433.5 230.731 37.9279 22.0004 175.143 80.9042C271.992 122.479 518.492 324.704 427.815 270.984C366.489 234.651 307.137 182.548 253.007 136.3C240.925 125.977 147.821 43.872 206.242 85.5306C306.934 157.332 433.914 196.398 525.628 279.533C630.962 375.014 301.24 104.865 187.308 19.828C164.428 2.75095 252.869 69 265.557 76.3581C359.434 130.801 453.115 188.421 548.773 239.616C594.406 264.037 717.27 358.261 680.469 321.868" stroke="#D04435" stroke-width="4" stroke-linecap="round"/>
<path d="M464.833 -22.5196C453.081 -16.8186 442.421 12.7496 437.17 22.7277C406.173 81.6361 379.274 142.626 347.6 201.2C314.009 263.32 208.769 447.212 243.665 385.815C271.567 336.722 290.306 282.251 318.725 232.939C369.833 144.26 437.069 62.6558 474.624 -33.437C479.484 -45.8725 478.254 -72.5077 485.846 -82.3821C496.126 -95.7519 473.505 -50.877 465.262 -36.1637C383.59 109.622 299.954 258.541 208.747 398.514C206.502 401.96 183.995 444.338 191.768 434.229C233.897 379.435 264.061 314.577 306.871 258.898C368.07 179.302 437.079 102.346 487.78 15.2458C490.927 9.83897 513.088 -47.4245 496.688 -18.15C441.828 79.7753 383.573 178.056 333.886 278.831C326.346 294.123 291.788 389.507 319.489 324.636C368.13 210.729 438.117 104.993 471.44 -15.4831C476.259 -32.9032 460.762 8.72941 459.714 10.8551C406.287 119.215 338.594 218.297 274.119 320.216C234.399 383.002 195.803 447.759 162.911 514.471C132.4 576.353 194.495 478.63 202.819 468.019C303.852 339.229 411.376 213.555 502.018 77.059C506.678 70.0416 566.554 -48.0649 535.755 11.189C505.213 69.949 460.947 124.69 422.501 178.299C370.079 251.396 323.167 328.075 275.725 404.456C247.835 449.36 248.363 447.939 273.057 401.566C318.949 315.384 377.754 235.968 426.899 151.496C449.721 112.27 469.93 62.4521 496.941 27.3206" stroke="#D04435" stroke-width="4" stroke-linecap="round"/>
</svg>
