<svg width="198" height="402" viewBox="0 0 198 402" fill="none" xmlns="http://www.w3.org/2000/svg">
<path d="M85.4701 28.4855C72.6538 31.7718 51.7655 33.8057 46.4017 48.0198C42.672 57.9034 44.4107 68.5252 54.5409 73.5228C76.7593 84.4838 99.0408 86.266 122.368 78.6776C145.629 71.1109 174.022 60.3381 184.226 36.2178C192.546 16.5537 171.893 14.5209 155.875 12.614C133.917 10 108.33 16.9548 91.9815 32.4195C85.404 38.6415 63.2717 69.1968 77.8735 76.7785C99.6501 88.0856 156.139 50.4215 133.22 31.4699C114.268 15.7981 48.5787 26.851 73.5325 58.7364C88.7677 78.2036 165.501 50.1737 158.181 26.5864C154.81 15.726 130.837 17.9021 123.453 20.8889C114.338 24.576 92.5679 41.5612 109.21 50.1902C130.826 61.3988 163.254 27.1824 125.217 18.9898C100.915 13.7555 62.4397 14.4467 45.1808 35.4039C28.4025 55.7775 81.0701 57.5778 89.5397 56.7016C107.959 54.7961 171.224 45.7072 174.731 21.1602C177.663 0.635378 141.078 8.68606 132.813 11.8001C116.46 17.9623 86.0852 33.2803 91.9815 56.0234C95.3458 68.9999 119.33 61.1611 125.081 54.2599C131.755 46.2513 135.678 27.9061 124.81 21.1602C103.894 8.17785 65.7785 16.2184 49.3861 33.0978C33.8697 49.075 27.8775 68.9582 52.3705 77.5924C81.4689 87.8501 124.759 77.3784 145.429 54.1242C147.418 51.8871 155.959 25.3094 150.177 29.1638C134.742 39.4537 154.355 91.6162 163.064 101.468C170.813 110.233 182.438 108.878 185.583 97.1266C192.848 69.9776 175.737 54.1863 150.313 49.3763C104.648 40.737 44.4882 46.4163 8.55414 79.3559C-14.3613 100.362 27.7936 88.1086 36.3633 83.1542C63.2255 67.6245 109.208 24.583 139.189 61.8565C146.107 70.4571 146.411 79.3384 149.499 88.9873C151.341 94.7431 150.869 82.6991 150.313 81.1194C141.929 57.2923 116.651 38.5231 95.2372 27.4003C75.7041 17.2545 54.2909 9.44148 32.5649 5.69563C25.7829 4.52631 7.14015 5.5697 24.8327 6.37391C45.2335 7.30122 65.4181 5.43515 85.7414 4.20344C96.0878 3.57638 92.5066 13.304 94.152 21.2959C95.8425 29.5071 98.9562 45.3067 110.024 45.3067C122.149 45.3067 135.408 34.926 140.003 24.1446C144.638 13.2707 140.494 5.47917 129.422 2.71124C109.167 -2.35258 82.4706 9.78651 66.7498 21.4315C51.0544 33.0578 42.3261 58.9332 61.595 71.081C89.6344 88.758 136.176 89.8945 166.591 78.6776C180.669 73.4859 200.034 62.2776 194.807 44.2214C191 31.0676 164.963 32.0553 156.01 32.5552C118.198 34.6665 86.0589 48.3132 64.8507 80.5768C52.145 99.9056 57.1033 112.767 80.4509 102.553C94.3126 96.4883 107.175 84.2736 107.175 68.0966C107.175 61.6005 99.04 62.919 106.632 66.1974C118.312 71.2411 129.5 75.8717 141.631 79.7629C152.846 83.36 152.37 84.247 145.158 94.5492C132.388 112.792 116.454 150.873 147.464 157.764C152.965 158.986 159.353 158.608 158.588 165.496C156.83 181.312 153.84 195.323 153.84 211.619C153.84 272.505 144.661 342.444 168.491 399.636" stroke="#D04435" stroke-width="3" stroke-linecap="round"/>
</svg>
